<svg xmlns="http://www.w3.org/2000/svg" width="256" height="256" viewBox="0 0 100 100"><rect width="100" height="100" rx="20" fill="#e0c3fc"></rect><path d="M10.95 81.04L10.95 81.04Q9.91 81.04 9.11 80.48Q8.31 79.92 7.99 79.04L7.99 79.04L-4.49 41.60Q-4.97 39.60-4.41 38.44Q-3.85 37.28-2.17 37.28L-2.17 37.28Q-1.13 37.28-0.33 37.84Q0.47 38.40 0.87 39.60L0.87 39.60L11.99 73.60L10.23 73.60L20.55 39.68Q20.87 38.64 21.63 37.96Q22.39 37.28 23.59 37.28L23.59 37.28Q24.79 37.28 25.55 37.92Q26.31 38.56 26.63 39.68L26.63 39.68L36.47 72.80L35.11 72.80L45.99 39.60Q46.79 37.28 48.95 37.28L48.95 37.28Q50.71 37.28 51.35 38.60Q51.99 39.92 51.35 41.60L51.35 41.60L38.87 79.04Q38.55 79.92 37.79 80.48Q37.03 81.04 35.99 81.04L35.99 81.04Q34.95 81.04 34.11 80.48Q33.27 79.92 33.03 79.04L33.03 79.04L22.95 45.60L23.91 45.60L13.83 79.04Q13.51 80.00 12.71 80.52Q11.91 81.04 10.95 81.04ZM82.39 81.44L82.39 81.44Q76.15 81.44 71.15 78.56Q66.15 75.68 63.23 70.68Q60.31 65.68 60.23 59.44L60.23 59.44L60.23 21.68Q60.23 20.24 61.07 19.40Q61.91 18.56 63.35 18.56L63.35 18.56Q64.71 18.56 65.55 19.40Q66.39 20.24 66.39 21.68L66.39 21.68L66.39 45.20Q69.03 41.44 73.39 39.16Q77.75 36.88 83.11 36.88L83.11 36.88Q89.27 36.88 94.15 39.80Q99.03 42.72 101.87 47.76Q104.71 52.80 104.71 59.12L104.71 59.12Q104.71 65.52 101.79 70.56Q98.87 75.60 93.83 78.52Q88.79 81.44 82.39 81.44ZM82.39 75.84L82.39 75.84Q87.03 75.84 90.71 73.64Q94.39 71.44 96.51 67.68Q98.63 63.92 98.63 59.12L98.63 59.12Q98.63 54.40 96.51 50.60Q94.39 46.80 90.71 44.64Q87.03 42.48 82.39 42.48L82.39 42.48Q77.83 42.48 74.15 44.64Q70.47 46.80 68.39 50.60Q66.31 54.40 66.31 59.12L66.31 59.12Q66.31 63.92 68.39 67.68Q70.47 71.44 74.15 73.64Q77.83 75.84 82.39 75.84Z" fill="#fff"></path></svg>